<svg xmlns="http://www.w3.org/2000/svg" xmlns:xlink="http://www.w3.org/1999/xlink" width="1600" zoomAndPan="magnify" viewBox="0 0 1200 257.99999" height="344" preserveAspectRatio="xMidYMid meet" version="1.0"><defs><g/><clipPath id="105f28e533"><path d="M 0.480469 0.359375 L 74 0.359375 L 74 74 L 0.480469 74 Z M 0.480469 0.359375 " clip-rule="nonzero"/></clipPath><clipPath id="1fd9ddd28e"><path d="M 166 0.359375 L 239 0.359375 L 239 74 L 166 74 Z M 166 0.359375 " clip-rule="nonzero"/></clipPath><clipPath id="8f2473b70c"><path d="M 332 0.359375 L 405 0.359375 L 405 74 L 332 74 Z M 332 0.359375 " clip-rule="nonzero"/></clipPath><clipPath id="13149c42d6"><path d="M 415 21 L 488 21 L 488 83.640625 L 415 83.640625 Z M 415 21 " clip-rule="nonzero"/></clipPath><clipPath id="1aaf6e3e25"><path d="M 508 0.359375 L 571 0.359375 L 571 74 L 508 74 Z M 508 0.359375 " clip-rule="nonzero"/></clipPath><clipPath id="579de06dc1"><path d="M 746 21 L 820 21 L 820 83.640625 L 746 83.640625 Z M 746 21 " clip-rule="nonzero"/></clipPath><clipPath id="3861e80330"><path d="M 840 0.359375 L 903 0.359375 L 903 74 L 840 74 Z M 840 0.359375 " clip-rule="nonzero"/></clipPath><clipPath id="de28155de5"><rect x="0" width="1001" y="0" height="84"/></clipPath></defs><g transform="matrix(1, 0, 0, 1, 102, 87)"><g clip-path="url(#de28155de5)"><g clip-path="url(#105f28e533)"><g fill="#000000" fill-opacity="1"><g transform="translate(0.50026, 83.458309)"><g><path d="M 20.734375 -10.359375 L 20.734375 -20.734375 L 10.359375 -20.734375 L 10.359375 -31.09375 L 0 -31.09375 L 0 -62.1875 L 10.359375 -62.1875 L 10.359375 -72.5625 L 20.734375 -72.5625 L 20.734375 -82.921875 L 62.1875 -82.921875 L 62.1875 -72.5625 L 72.5625 -72.5625 L 72.5625 -62.1875 L 51.828125 -62.1875 L 51.828125 -72.5625 L 31.09375 -72.5625 L 31.09375 -62.1875 L 20.734375 -62.1875 L 20.734375 -31.09375 L 31.09375 -31.09375 L 31.09375 -20.734375 L 51.828125 -20.734375 L 51.828125 -31.09375 L 72.5625 -31.09375 L 72.5625 -20.734375 L 62.1875 -20.734375 L 62.1875 -10.359375 Z M 20.734375 -10.359375 "/></g></g></g></g><g fill="#000000" fill-opacity="1"><g transform="translate(83.417044, 83.458309)"><g><path d="M 10.359375 -10.359375 L 10.359375 -20.734375 L 0 -20.734375 L 0 -51.828125 L 10.359375 -51.828125 L 10.359375 -62.1875 L 62.1875 -62.1875 L 62.1875 -51.828125 L 72.5625 -51.828125 L 72.5625 -20.734375 L 62.1875 -20.734375 L 62.1875 -10.359375 Z M 20.734375 -20.734375 L 51.828125 -20.734375 L 51.828125 -51.828125 L 20.734375 -51.828125 Z M 20.734375 -20.734375 "/></g></g></g><g clip-path="url(#1fd9ddd28e)"><g fill="#000000" fill-opacity="1"><g transform="translate(166.333827, 83.458309)"><g><path d="M 10.359375 -10.359375 L 10.359375 -20.734375 L 0 -20.734375 L 0 -51.828125 L 10.359375 -51.828125 L 10.359375 -62.1875 L 51.828125 -62.1875 L 51.828125 -82.921875 L 72.5625 -82.921875 L 72.5625 -10.359375 Z M 20.734375 -20.734375 L 51.828125 -20.734375 L 51.828125 -51.828125 L 20.734375 -51.828125 Z M 20.734375 -20.734375 "/></g></g></g></g><g fill="#000000" fill-opacity="1"><g transform="translate(249.250611, 83.458309)"><g><path d="M 10.359375 -10.359375 L 10.359375 -20.734375 L 0 -20.734375 L 0 -51.828125 L 10.359375 -51.828125 L 10.359375 -62.1875 L 62.1875 -62.1875 L 62.1875 -51.828125 L 72.5625 -51.828125 L 72.5625 -31.09375 L 20.734375 -31.09375 L 20.734375 -20.734375 L 62.1875 -20.734375 L 62.1875 -10.359375 Z M 20.734375 -41.46875 L 51.828125 -41.46875 L 51.828125 -51.828125 L 20.734375 -51.828125 Z M 20.734375 -41.46875 "/></g></g></g><g clip-path="url(#8f2473b70c)"><g fill="#000000" fill-opacity="1"><g transform="translate(332.167394, 83.458309)"><g><path d="M 0 -10.359375 L 0 -82.921875 L 62.1875 -82.921875 L 62.1875 -72.5625 L 72.5625 -72.5625 L 72.5625 -51.828125 L 62.1875 -51.828125 L 62.1875 -41.46875 L 72.5625 -41.46875 L 72.5625 -20.734375 L 62.1875 -20.734375 L 62.1875 -10.359375 Z M 20.734375 -51.828125 L 51.828125 -51.828125 L 51.828125 -72.5625 L 20.734375 -72.5625 Z M 20.734375 -20.734375 L 51.828125 -20.734375 L 51.828125 -41.46875 L 20.734375 -41.46875 Z M 20.734375 -20.734375 "/></g></g></g></g><g clip-path="url(#13149c42d6)"><g fill="#000000" fill-opacity="1"><g transform="translate(415.084178, 83.458309)"><g><path d="M 10.359375 0 L 10.359375 -10.359375 L 51.828125 -10.359375 L 51.828125 -20.734375 L 10.359375 -20.734375 L 10.359375 -31.09375 L 0 -31.09375 L 0 -62.1875 L 20.734375 -62.1875 L 20.734375 -31.09375 L 51.828125 -31.09375 L 51.828125 -62.1875 L 72.5625 -62.1875 L 72.5625 -10.359375 L 62.1875 -10.359375 L 62.1875 0 Z M 10.359375 0 "/></g></g></g></g><g clip-path="url(#1aaf6e3e25)"><g fill="#b76b7b" fill-opacity="1"><g transform="translate(498.080986, 83.458309)"><g><path d="M 10.359375 -10.359375 L 10.359375 -20.734375 L 31.09375 -20.734375 L 31.09375 -72.5625 L 10.359375 -72.5625 L 10.359375 -82.921875 L 72.5625 -82.921875 L 72.5625 -72.5625 L 51.828125 -72.5625 L 51.828125 -20.734375 L 72.5625 -20.734375 L 72.5625 -10.359375 Z M 10.359375 -10.359375 "/></g></g></g></g><g fill="#b76b7b" fill-opacity="1"><g transform="translate(580.99777, 83.458309)"><g><path d="M 0 -10.359375 L 0 -62.1875 L 62.1875 -62.1875 L 62.1875 -51.828125 L 72.5625 -51.828125 L 72.5625 -10.359375 L 51.828125 -10.359375 L 51.828125 -51.828125 L 20.734375 -51.828125 L 20.734375 -10.359375 Z M 0 -10.359375 "/></g></g></g><g fill="#b76b7b" fill-opacity="1"><g transform="translate(663.914553, 83.458309)"><g><path d="M 0 -10.359375 L 0 -20.734375 L 51.828125 -20.734375 L 51.828125 -31.09375 L 10.359375 -31.09375 L 10.359375 -41.46875 L 0 -41.46875 L 0 -51.828125 L 10.359375 -51.828125 L 10.359375 -62.1875 L 62.1875 -62.1875 L 62.1875 -51.828125 L 20.734375 -51.828125 L 20.734375 -41.46875 L 62.1875 -41.46875 L 62.1875 -31.09375 L 72.5625 -31.09375 L 72.5625 -20.734375 L 62.1875 -20.734375 L 62.1875 -10.359375 Z M 0 -10.359375 "/></g></g></g><g clip-path="url(#579de06dc1)"><g fill="#b76b7b" fill-opacity="1"><g transform="translate(746.831337, 83.458309)"><g><path d="M 10.359375 0 L 10.359375 -10.359375 L 51.828125 -10.359375 L 51.828125 -20.734375 L 10.359375 -20.734375 L 10.359375 -31.09375 L 0 -31.09375 L 0 -62.1875 L 20.734375 -62.1875 L 20.734375 -31.09375 L 51.828125 -31.09375 L 51.828125 -62.1875 L 72.5625 -62.1875 L 72.5625 -10.359375 L 62.1875 -10.359375 L 62.1875 0 Z M 10.359375 0 "/></g></g></g></g><g clip-path="url(#3861e80330)"><g fill="#b76b7b" fill-opacity="1"><g transform="translate(829.748121, 83.458309)"><g><path d="M 31.09375 -72.5625 L 31.09375 -82.921875 L 51.828125 -82.921875 L 51.828125 -72.5625 Z M 10.359375 -10.359375 L 10.359375 -20.734375 L 31.09375 -20.734375 L 31.09375 -51.828125 L 20.734375 -51.828125 L 20.734375 -62.1875 L 51.828125 -62.1875 L 51.828125 -20.734375 L 72.5625 -20.734375 L 72.5625 -10.359375 Z M 10.359375 -10.359375 "/></g></g></g></g><g fill="#b76b7b" fill-opacity="1"><g transform="translate(912.664904, 83.458309)"><g><path d="M 20.734375 -10.359375 L 20.734375 -31.09375 L 41.46875 -31.09375 L 41.46875 -10.359375 Z M 20.734375 -10.359375 "/></g></g></g></g></g></svg>