<svg xmlns="http://www.w3.org/2000/svg" xmlns:xlink="http://www.w3.org/1999/xlink" width="800" zoomAndPan="magnify" viewBox="0 0 600 104.249996" height="139" preserveAspectRatio="xMidYMid meet" version="1.0"><defs><g/><clipPath id="606dc1255f"><path d="M 17 23 L 363 23 L 363 103.503906 L 17 103.503906 Z M 17 23 " clip-rule="nonzero"/></clipPath><clipPath id="bbc2335f53"><path d="M 76 0.351562 L 116 0.351562 L 116 61 L 76 61 Z M 76 0.351562 " clip-rule="nonzero"/></clipPath><clipPath id="4e416e554a"><path d="M 240 0.351562 L 294 0.351562 L 294 60 L 240 60 Z M 240 0.351562 " clip-rule="nonzero"/></clipPath><clipPath id="52e1bb5dcb"><rect x="0" width="346" y="0" height="81"/></clipPath><clipPath id="b3c8bad97b"><path d="M 362 7 L 575 7 L 575 103.503906 L 362 103.503906 Z M 362 7 " clip-rule="nonzero"/></clipPath><clipPath id="f608e0205f"><rect x="0" width="213" y="0" height="97"/></clipPath></defs><g clip-path="url(#606dc1255f)"><g transform="matrix(1, 0, 0, 1, 17, 23)"><g clip-path="url(#52e1bb5dcb)"><g fill="#ffffff" fill-opacity="1"><g transform="translate(1.036864, 59.039929)"><g><path d="M 2.84375 0 L 2.84375 -0.453125 C 4.75 -0.753906 5.957031 -1.957031 6.46875 -4.0625 C 6.976562 -6.175781 7.234375 -9.175781 7.234375 -13.0625 C 7.234375 -18.226562 7.234375 -23.375 7.234375 -28.5 C 7.234375 -33.632812 7.234375 -38.785156 7.234375 -43.953125 C 7.234375 -47.835938 6.976562 -50.84375 6.46875 -52.96875 C 5.957031 -55.09375 4.75 -56.289062 2.84375 -56.5625 L 2.84375 -57.015625 L 18.59375 -57.015625 L 18.59375 -56.5625 C 16.6875 -56.289062 15.476562 -55.09375 14.96875 -52.96875 C 14.457031 -50.84375 14.203125 -47.835938 14.203125 -43.953125 C 14.203125 -38.785156 14.203125 -33.632812 14.203125 -28.5 C 14.203125 -23.375 14.203125 -18.226562 14.203125 -13.0625 C 14.203125 -9.175781 14.457031 -6.175781 14.96875 -4.0625 C 15.476562 -1.957031 16.6875 -0.753906 18.59375 -0.453125 L 18.59375 0 Z M 2.84375 0 "/></g></g></g><g fill="#ffffff" fill-opacity="1"><g transform="translate(22.473978, 59.039929)"><g><path d="M 2.84375 -57.015625 L 13.453125 -57.015625 L 40.875 -14.140625 L 40.875 -28.515625 C 40.875 -30.410156 40.875 -31.820312 40.875 -32.75 C 40.875 -33.6875 40.875 -34.34375 40.875 -34.71875 C 40.875 -35.101562 40.863281 -35.410156 40.84375 -35.640625 C 40.832031 -35.867188 40.828125 -36.21875 40.828125 -36.6875 C 40.828125 -37.164062 40.828125 -37.953125 40.828125 -39.046875 C 40.828125 -40.148438 40.828125 -41.785156 40.828125 -43.953125 C 40.828125 -47.835938 40.566406 -50.84375 40.046875 -52.96875 C 39.535156 -55.09375 38.332031 -56.289062 36.4375 -56.5625 L 36.4375 -57.015625 L 47.03125 -57.015625 L 47.03125 -56.5625 C 45.132812 -56.289062 43.925781 -55.09375 43.40625 -52.96875 C 42.894531 -50.84375 42.640625 -47.835938 42.640625 -43.953125 C 42.640625 -41.785156 42.640625 -40.148438 42.640625 -39.046875 C 42.640625 -37.953125 42.640625 -37.164062 42.640625 -36.6875 C 42.640625 -36.21875 42.628906 -35.867188 42.609375 -35.640625 C 42.597656 -35.410156 42.59375 -35.101562 42.59375 -34.71875 C 42.59375 -34.34375 42.59375 -33.6875 42.59375 -32.75 C 42.59375 -31.820312 42.59375 -30.410156 42.59375 -28.515625 L 42.59375 0 L 40.875 0 L 9.0625 -49.65625 C 9.0625 -43.570312 9.0625 -37.476562 9.0625 -31.375 C 9.0625 -25.28125 9.0625 -19.175781 9.0625 -13.0625 C 9.0625 -9.175781 9.316406 -6.175781 9.828125 -4.0625 C 10.347656 -1.957031 11.554688 -0.753906 13.453125 -0.453125 L 13.453125 0 L 2.84375 0 L 2.84375 -0.453125 C 4.75 -0.753906 5.957031 -1.957031 6.46875 -4.0625 C 6.976562 -6.175781 7.234375 -9.175781 7.234375 -13.0625 C 7.234375 -18.226562 7.234375 -23.375 7.234375 -28.5 C 7.234375 -33.632812 7.234375 -38.785156 7.234375 -43.953125 C 7.234375 -47.835938 6.976562 -50.84375 6.46875 -52.96875 C 5.957031 -55.09375 4.75 -56.289062 2.84375 -56.5625 Z M 2.84375 -57.015625 "/></g></g></g><g clip-path="url(#bbc2335f53)"><g fill="#ffffff" fill-opacity="1"><g transform="translate(72.360883, 59.039929)"><g><path d="M 4.5625 -4.15625 L 4.5625 -15.109375 L 5.296875 -15.109375 C 6.328125 -12.222656 7.664062 -9.675781 9.3125 -7.46875 C 10.96875 -5.257812 12.984375 -3.535156 15.359375 -2.296875 C 17.734375 -1.066406 20.519531 -0.453125 23.71875 -0.453125 C 25.394531 -0.453125 27.054688 -0.671875 28.703125 -1.109375 C 30.359375 -1.546875 31.859375 -2.191406 33.203125 -3.046875 C 34.554688 -3.898438 35.640625 -4.953125 36.453125 -6.203125 C 37.273438 -7.460938 37.6875 -8.890625 37.6875 -10.484375 C 37.6875 -12.734375 37.113281 -14.703125 35.96875 -16.390625 C 34.832031 -18.078125 33.3125 -19.597656 31.40625 -20.953125 C 29.507812 -22.304688 27.429688 -23.578125 25.171875 -24.765625 C 22.910156 -25.960938 20.648438 -27.179688 18.390625 -28.421875 C 16.128906 -29.660156 14.046875 -31.019531 12.140625 -32.5 C 10.242188 -33.976562 8.722656 -35.6875 7.578125 -37.625 C 6.441406 -39.5625 5.875 -41.84375 5.875 -44.46875 C 5.875 -46.0625 6.210938 -47.664062 6.890625 -49.28125 C 7.578125 -50.90625 8.671875 -52.390625 10.171875 -53.734375 C 11.671875 -55.085938 13.640625 -56.160156 16.078125 -56.953125 C 18.515625 -57.753906 21.5 -58.15625 25.03125 -58.15625 C 28.488281 -58.15625 31.660156 -57.84375 34.546875 -57.21875 C 37.441406 -56.59375 39.6875 -55.914062 41.28125 -55.1875 L 41.28125 -43.78125 L 40.828125 -43.78125 C 40.828125 -43.78125 40.609375 -44.207031 40.171875 -45.0625 C 39.734375 -45.925781 39.066406 -46.984375 38.171875 -48.234375 C 37.273438 -49.484375 36.160156 -50.726562 34.828125 -51.96875 C 33.503906 -53.207031 31.945312 -54.253906 30.15625 -55.109375 C 28.375 -55.960938 26.378906 -56.390625 24.171875 -56.390625 C 22.003906 -56.390625 19.941406 -56.054688 17.984375 -55.390625 C 16.023438 -54.722656 14.425781 -53.695312 13.1875 -52.3125 C 11.957031 -50.925781 11.34375 -49.148438 11.34375 -46.984375 C 11.34375 -45.046875 11.910156 -43.332031 13.046875 -41.84375 C 14.191406 -40.363281 15.710938 -39.003906 17.609375 -37.765625 C 19.515625 -36.535156 21.597656 -35.335938 23.859375 -34.171875 C 26.117188 -33.015625 28.378906 -31.804688 30.640625 -30.546875 C 32.898438 -29.296875 34.976562 -27.921875 36.875 -26.421875 C 38.78125 -24.921875 40.300781 -23.210938 41.4375 -21.296875 C 42.582031 -19.378906 43.15625 -17.144531 43.15625 -14.59375 C 43.15625 -12.125 42.582031 -9.921875 41.4375 -7.984375 C 40.300781 -6.046875 38.773438 -4.390625 36.859375 -3.015625 C 34.941406 -1.648438 32.800781 -0.617188 30.4375 0.078125 C 28.082031 0.785156 25.671875 1.140625 23.203125 1.140625 C 19.585938 1.140625 16.109375 0.722656 12.765625 -0.109375 C 9.421875 -0.953125 6.6875 -2.300781 4.5625 -4.15625 Z M 4.5625 -4.15625 "/></g></g></g></g><g fill="#ffffff" fill-opacity="1"><g transform="translate(120.081271, 59.039929)"><g><path d="M 13.40625 -40.53125 C 11.726562 -43.65625 10.195312 -46.375 8.8125 -48.6875 C 7.425781 -51.007812 6.125 -52.851562 4.90625 -54.21875 C 3.6875 -55.59375 2.429688 -56.375 1.140625 -56.5625 L 1.140625 -57.015625 L 18.125 -57.015625 L 18.125 -56.5625 C 17.289062 -56.40625 16.539062 -56.003906 15.875 -55.359375 C 15.207031 -54.710938 14.875 -53.914062 14.875 -52.96875 C 14.875 -52.320312 15.207031 -51.238281 15.875 -49.71875 C 16.539062 -48.195312 17.382812 -46.4375 18.40625 -44.4375 C 19.4375 -42.445312 20.539062 -40.40625 21.71875 -38.3125 C 22.894531 -36.21875 24.003906 -34.269531 25.046875 -32.46875 C 26.097656 -30.664062 26.945312 -29.210938 27.59375 -28.109375 C 29.6875 -32.023438 31.453125 -35.300781 32.890625 -37.9375 C 34.335938 -40.582031 35.507812 -42.785156 36.40625 -44.546875 C 37.300781 -46.316406 37.945312 -47.800781 38.34375 -49 C 38.738281 -50.195312 38.9375 -51.269531 38.9375 -52.21875 C 38.9375 -52.71875 38.820312 -53.28125 38.59375 -53.90625 C 38.363281 -54.53125 37.925781 -55.085938 37.28125 -55.578125 C 36.632812 -56.078125 35.707031 -56.347656 34.5 -56.390625 L 34.5 -57.015625 L 48.6875 -57.015625 L 48.6875 -56.5625 C 47.4375 -56.375 46.191406 -55.59375 44.953125 -54.21875 C 43.722656 -52.851562 42.421875 -51.007812 41.046875 -48.6875 C 39.679688 -46.375 38.144531 -43.65625 36.4375 -40.53125 C 33.882812 -35.894531 31.914062 -32.273438 30.53125 -29.671875 C 29.144531 -27.066406 28.453125 -25.765625 28.453125 -25.765625 C 28.453125 -24.054688 28.453125 -22.535156 28.453125 -21.203125 C 28.453125 -19.878906 28.441406 -18.578125 28.421875 -17.296875 C 28.398438 -16.023438 28.390625 -14.613281 28.390625 -13.0625 C 28.390625 -9.175781 28.644531 -6.175781 29.15625 -4.0625 C 29.675781 -1.957031 30.882812 -0.753906 32.78125 -0.453125 L 32.78125 0 L 17.046875 0 L 17.046875 -0.453125 C 18.953125 -0.753906 20.160156 -1.957031 20.671875 -4.0625 C 21.179688 -6.175781 21.4375 -9.175781 21.4375 -13.0625 C 21.4375 -14.914062 21.4375 -16.328125 21.4375 -17.296875 C 21.4375 -18.273438 21.4375 -18.941406 21.4375 -19.296875 C 21.4375 -19.660156 21.4375 -19.867188 21.4375 -19.921875 C 21.4375 -19.984375 21.445312 -20.019531 21.46875 -20.03125 C 21.488281 -20.050781 21.5 -20.203125 21.5 -20.484375 C 21.5 -20.773438 21.5 -21.316406 21.5 -22.109375 C 21.5 -22.910156 21.5 -24.128906 21.5 -25.765625 C 21.039062 -26.566406 20.609375 -27.328125 20.203125 -28.046875 C 19.804688 -28.773438 19.332031 -29.640625 18.78125 -30.640625 C 18.226562 -31.648438 17.523438 -32.929688 16.671875 -34.484375 C 15.816406 -36.046875 14.726562 -38.0625 13.40625 -40.53125 Z M 13.40625 -40.53125 "/></g></g></g><g fill="#ffffff" fill-opacity="1"><g transform="translate(169.911157, 59.039929)"><g><path d="M 2.84375 0 L 2.84375 -0.453125 C 4.75 -0.753906 5.957031 -1.957031 6.46875 -4.0625 C 6.976562 -6.175781 7.234375 -9.175781 7.234375 -13.0625 C 7.234375 -18.226562 7.234375 -23.375 7.234375 -28.5 C 7.234375 -33.632812 7.234375 -38.785156 7.234375 -43.953125 C 7.234375 -47.835938 6.976562 -50.84375 6.46875 -52.96875 C 5.957031 -55.09375 4.75 -56.289062 2.84375 -56.5625 L 2.84375 -57.015625 L 18.59375 -57.015625 L 18.59375 -56.5625 C 16.6875 -56.289062 15.476562 -55.09375 14.96875 -52.96875 C 14.457031 -50.84375 14.203125 -47.835938 14.203125 -43.953125 C 14.203125 -38.785156 14.203125 -33.632812 14.203125 -28.5 C 14.203125 -23.375 14.203125 -18.226562 14.203125 -13.0625 C 14.203125 -9.175781 14.457031 -6.175781 14.96875 -4.0625 C 15.476562 -1.957031 16.6875 -0.753906 18.59375 -0.453125 L 18.59375 0 Z M 2.84375 0 "/></g></g></g><g fill="#ffffff" fill-opacity="1"><g transform="translate(191.348271, 59.039929)"><g><path d="M 2.84375 -0.453125 C 4.75 -0.753906 5.957031 -1.957031 6.46875 -4.0625 C 6.976562 -6.175781 7.234375 -9.175781 7.234375 -13.0625 C 7.234375 -18.226562 7.234375 -23.375 7.234375 -28.5 C 7.234375 -33.632812 7.234375 -38.785156 7.234375 -43.953125 C 7.234375 -47.835938 6.976562 -50.84375 6.46875 -52.96875 C 5.957031 -55.09375 4.75 -56.289062 2.84375 -56.5625 L 2.84375 -57.015625 L 25.546875 -57.015625 C 26.265625 -57.015625 27.328125 -56.972656 28.734375 -56.890625 C 30.140625 -56.816406 31.675781 -56.585938 33.34375 -56.203125 C 35.019531 -55.828125 36.617188 -55.203125 38.140625 -54.328125 C 39.660156 -53.460938 40.914062 -52.238281 41.90625 -50.65625 C 42.894531 -49.082031 43.390625 -47.0625 43.390625 -44.59375 C 43.390625 -42.15625 42.628906 -39.96875 41.109375 -38.03125 C 39.585938 -36.09375 37.429688 -34.5625 34.640625 -33.4375 C 31.847656 -32.3125 28.566406 -31.734375 24.796875 -31.703125 C 26.890625 -30.640625 28.675781 -29.15625 30.15625 -27.25 C 31.644531 -25.351562 32.929688 -23.242188 34.015625 -20.921875 C 35.097656 -18.609375 36.070312 -16.269531 36.9375 -13.90625 C 37.8125 -11.550781 38.6875 -9.382812 39.5625 -7.40625 C 40.4375 -5.4375 41.425781 -3.851562 42.53125 -2.65625 C 43.632812 -1.457031 44.925781 -0.859375 46.40625 -0.859375 L 46.40625 0 L 38.71875 0 C 37.082031 0 35.769531 -0.554688 34.78125 -1.671875 C 33.789062 -2.796875 32.925781 -4.375 32.1875 -6.40625 C 31.445312 -8.445312 30.617188 -10.796875 29.703125 -13.453125 C 29.015625 -15.503906 28.28125 -17.59375 27.5 -19.71875 C 26.726562 -21.851562 25.859375 -23.820312 24.890625 -25.625 C 23.921875 -27.4375 22.796875 -28.898438 21.515625 -30.015625 C 20.242188 -31.140625 18.753906 -31.703125 17.046875 -31.703125 L 14.140625 -31.703125 L 14.140625 -28.515625 C 14.140625 -26.609375 14.140625 -25.1875 14.140625 -24.25 C 14.140625 -23.320312 14.140625 -22.664062 14.140625 -22.28125 C 14.140625 -21.90625 14.148438 -21.601562 14.171875 -21.375 C 14.191406 -21.144531 14.203125 -20.789062 14.203125 -20.3125 C 14.203125 -19.84375 14.203125 -19.054688 14.203125 -17.953125 C 14.203125 -16.859375 14.203125 -15.226562 14.203125 -13.0625 C 14.203125 -9.175781 14.457031 -6.175781 14.96875 -4.0625 C 15.476562 -1.957031 16.6875 -0.753906 18.59375 -0.453125 L 18.59375 0 L 2.84375 0 Z M 14.140625 -55.359375 L 14.140625 -33.1875 L 23.609375 -33.1875 C 27.410156 -33.1875 30.46875 -34.15625 32.78125 -36.09375 C 35.101562 -38.03125 36.265625 -40.820312 36.265625 -44.46875 C 36.265625 -47.851562 35.1875 -50.515625 33.03125 -52.453125 C 30.882812 -54.390625 27.800781 -55.359375 23.78125 -55.359375 Z M 14.140625 -55.359375 "/></g></g></g><g clip-path="url(#4e416e554a)"><g fill="#ffffff" fill-opacity="1"><g transform="translate(239.467749, 59.039929)"><g><path d="M 18.015625 0 L 1.140625 0 L 1.140625 -0.453125 C 3.460938 -0.796875 5.398438 -2.304688 6.953125 -4.984375 C 8.515625 -7.671875 10.1875 -11.503906 11.96875 -16.484375 C 12.539062 -18.035156 13.234375 -19.941406 14.046875 -22.203125 C 14.867188 -24.460938 15.773438 -26.90625 16.765625 -29.53125 C 17.753906 -32.15625 18.738281 -34.804688 19.71875 -37.484375 C 20.707031 -40.160156 21.664062 -42.734375 22.59375 -45.203125 C 23.53125 -47.679688 24.367188 -49.890625 25.109375 -51.828125 C 25.859375 -53.765625 26.441406 -55.300781 26.859375 -56.4375 C 27.273438 -57.582031 27.484375 -58.15625 27.484375 -58.15625 L 27.9375 -58.15625 C 27.9375 -58.15625 28.15625 -57.582031 28.59375 -56.4375 C 29.03125 -55.300781 29.617188 -53.765625 30.359375 -51.828125 C 31.097656 -49.890625 31.941406 -47.679688 32.890625 -45.203125 C 33.847656 -42.734375 34.835938 -40.148438 35.859375 -37.453125 C 36.890625 -34.753906 37.90625 -32.101562 38.90625 -29.5 C 39.914062 -26.894531 40.835938 -24.460938 41.671875 -22.203125 C 42.515625 -19.941406 43.21875 -18.035156 43.78125 -16.484375 C 45.113281 -12.910156 46.289062 -9.972656 47.3125 -7.671875 C 48.34375 -5.367188 49.398438 -3.644531 50.484375 -2.5 C 51.566406 -1.363281 52.832031 -0.679688 54.28125 -0.453125 L 54.28125 0 L 36.4375 0 L 36.4375 -0.453125 C 37.757812 -0.492188 38.695312 -0.847656 39.25 -1.515625 C 39.800781 -2.179688 40.054688 -3.054688 40.015625 -4.140625 C 39.984375 -5.222656 39.75 -6.445312 39.3125 -7.8125 C 38.875 -9.175781 38.347656 -10.582031 37.734375 -12.03125 C 37.128906 -13.476562 36.546875 -14.882812 35.984375 -16.25 C 35.898438 -16.4375 35.820312 -16.625 35.75 -16.8125 C 35.675781 -17.007812 35.597656 -17.203125 35.515625 -17.390625 L 14.375 -17.390625 L 13.96875 -16.3125 C 13.320312 -14.5625 12.863281 -12.78125 12.59375 -10.96875 C 12.332031 -9.164062 12.316406 -7.484375 12.546875 -5.921875 C 12.773438 -4.367188 13.332031 -3.109375 14.21875 -2.140625 C 15.113281 -1.171875 16.378906 -0.664062 18.015625 -0.625 Z M 15 -19.09375 L 34.890625 -19.09375 C 34.742188 -19.519531 34.582031 -19.945312 34.40625 -20.375 C 34.238281 -20.8125 34.078125 -21.222656 33.921875 -21.609375 C 33.128906 -23.773438 32.300781 -26.015625 31.4375 -28.328125 C 30.582031 -30.648438 29.753906 -32.875 28.953125 -35 C 28.160156 -37.132812 27.441406 -39.046875 26.796875 -40.734375 C 26.148438 -42.429688 25.632812 -43.78125 25.25 -44.78125 C 24.875 -45.789062 24.6875 -46.296875 24.6875 -46.296875 Z M 15 -19.09375 "/></g></g></g></g><g fill="#ffffff" fill-opacity="1"><g transform="translate(294.884969, 59.039929)"><g><path d="M 18.59375 0 L 2.84375 0 L 2.84375 -0.453125 C 4.75 -0.753906 5.957031 -1.957031 6.46875 -4.0625 C 6.976562 -6.175781 7.234375 -9.175781 7.234375 -13.0625 C 7.234375 -18.226562 7.234375 -23.375 7.234375 -28.5 C 7.234375 -33.632812 7.234375 -38.785156 7.234375 -43.953125 C 7.234375 -47.835938 6.976562 -50.84375 6.46875 -52.96875 C 5.957031 -55.09375 4.75 -56.289062 2.84375 -56.5625 L 2.84375 -57.015625 L 18.59375 -57.015625 L 18.59375 -56.5625 C 16.6875 -56.289062 15.476562 -55.09375 14.96875 -52.96875 C 14.457031 -50.84375 14.203125 -47.835938 14.203125 -43.953125 C 14.203125 -41.941406 14.203125 -40.394531 14.203125 -39.3125 C 14.203125 -38.226562 14.203125 -37.4375 14.203125 -36.9375 C 14.203125 -36.445312 14.191406 -36.078125 14.171875 -35.828125 C 14.148438 -35.585938 14.140625 -35.332031 14.140625 -35.0625 C 14.140625 -34.800781 14.140625 -34.347656 14.140625 -33.703125 L 35.921875 -33.703125 C 35.921875 -34.347656 35.921875 -34.800781 35.921875 -35.0625 C 35.921875 -35.332031 35.921875 -35.585938 35.921875 -35.828125 C 35.921875 -36.078125 35.910156 -36.445312 35.890625 -36.9375 C 35.867188 -37.4375 35.859375 -38.226562 35.859375 -39.3125 C 35.859375 -40.394531 35.859375 -41.941406 35.859375 -43.953125 C 35.859375 -47.835938 35.601562 -50.84375 35.09375 -52.96875 C 34.582031 -55.09375 33.375 -56.289062 31.46875 -56.5625 L 31.46875 -57.015625 L 47.203125 -57.015625 L 47.203125 -56.5625 C 45.304688 -56.289062 44.097656 -55.09375 43.578125 -52.96875 C 43.066406 -50.84375 42.8125 -47.835938 42.8125 -43.953125 C 42.8125 -38.785156 42.8125 -33.632812 42.8125 -28.5 C 42.8125 -23.375 42.8125 -18.226562 42.8125 -13.0625 C 42.8125 -9.175781 43.066406 -6.175781 43.578125 -4.0625 C 44.097656 -1.957031 45.304688 -0.753906 47.203125 -0.453125 L 47.203125 0 L 31.46875 0 L 31.46875 -0.453125 C 33.375 -0.753906 34.582031 -1.957031 35.09375 -4.0625 C 35.601562 -6.175781 35.859375 -9.175781 35.859375 -13.0625 C 35.859375 -15.226562 35.859375 -16.859375 35.859375 -17.953125 C 35.859375 -19.054688 35.859375 -19.84375 35.859375 -20.3125 C 35.859375 -20.789062 35.867188 -21.144531 35.890625 -21.375 C 35.910156 -21.601562 35.921875 -21.90625 35.921875 -22.28125 C 35.921875 -22.664062 35.921875 -23.320312 35.921875 -24.25 C 35.921875 -25.1875 35.921875 -26.609375 35.921875 -28.515625 C 35.921875 -29.265625 35.921875 -29.925781 35.921875 -30.5 C 35.921875 -31.070312 35.921875 -31.566406 35.921875 -31.984375 L 14.140625 -31.984375 C 14.140625 -31.566406 14.140625 -31.070312 14.140625 -30.5 C 14.140625 -29.925781 14.140625 -29.265625 14.140625 -28.515625 C 14.140625 -26.609375 14.140625 -25.1875 14.140625 -24.25 C 14.140625 -23.320312 14.140625 -22.664062 14.140625 -22.28125 C 14.140625 -21.90625 14.148438 -21.601562 14.171875 -21.375 C 14.191406 -21.144531 14.203125 -20.789062 14.203125 -20.3125 C 14.203125 -19.84375 14.203125 -19.054688 14.203125 -17.953125 C 14.203125 -16.859375 14.203125 -15.226562 14.203125 -13.0625 C 14.203125 -9.175781 14.457031 -6.175781 14.96875 -4.0625 C 15.476562 -1.957031 16.6875 -0.753906 18.59375 -0.453125 Z M 18.59375 0 "/></g></g></g></g></g></g><g clip-path="url(#b3c8bad97b)"><g transform="matrix(1, 0, 0, 1, 362, 7)"><g clip-path="url(#f608e0205f)"><g fill="#ffffff" fill-opacity="1"><g transform="translate(0.827217, 72.118698)"><g><path d="M 86.96875 -69.703125 C 86.96875 -69.296875 86.734375 -68.910156 86.265625 -68.546875 C 85.804688 -68.179688 85.179688 -67.75 84.390625 -67.25 C 83.597656 -66.757812 82.65625 -66.132812 81.5625 -65.375 C 80.46875 -64.613281 79.289062 -63.703125 78.03125 -62.640625 C 74.851562 -59.929688 71.742188 -57.234375 68.703125 -54.546875 C 65.660156 -51.867188 62.582031 -49.140625 59.46875 -46.359375 C 55.632812 -42.984375 51.726562 -39.539062 47.75 -36.03125 C 43.78125 -32.53125 39.789062 -29.054688 35.78125 -25.609375 C 31.78125 -22.171875 27.8125 -18.828125 23.875 -15.578125 C 19.9375 -12.335938 16.050781 -9.328125 12.21875 -6.546875 L 12.40625 -6.359375 C 14.394531 -7.347656 16.5 -8.320312 18.71875 -9.28125 C 20.9375 -10.238281 23.429688 -10.71875 26.203125 -10.71875 C 28.054688 -10.71875 29.992188 -10.335938 32.015625 -9.578125 C 34.035156 -8.816406 36.070312 -7.988281 38.125 -7.09375 C 40.175781 -6.207031 42.226562 -5.398438 44.28125 -4.671875 C 46.332031 -3.941406 48.347656 -3.578125 50.328125 -3.578125 C 54.703125 -3.578125 59.203125 -5.445312 63.828125 -9.1875 C 68.460938 -12.925781 73.097656 -18.632812 77.734375 -26.3125 L 78.4375 -26.015625 C 76.050781 -21.710938 73.453125 -17.90625 70.640625 -14.59375 C 67.828125 -11.28125 64.945312 -8.484375 62 -6.203125 C 59.050781 -3.921875 56.070312 -2.179688 53.0625 -0.984375 C 50.050781 0.203125 47.125 0.796875 44.28125 0.796875 C 42.226562 0.796875 40.222656 0.398438 38.265625 -0.390625 C 36.316406 -1.191406 34.1875 -2.285156 31.875 -3.671875 C 29.550781 -5.066406 27.507812 -6.125 25.75 -6.84375 C 24 -7.570312 22.363281 -7.9375 20.84375 -7.9375 C 18.53125 -7.9375 16.394531 -7.441406 14.4375 -6.453125 C 12.488281 -5.460938 10.851562 -4.304688 9.53125 -2.984375 C 8.007812 -1.523438 6.914062 -0.398438 6.25 0.390625 C 5.59375 1.191406 5.097656 1.59375 4.765625 1.59375 C 4.234375 1.59375 3.96875 1.257812 3.96875 0.59375 C 3.96875 -0.195312 4.566406 -1.125 5.765625 -2.1875 C 6.421875 -2.71875 9.144531 -5.035156 13.9375 -9.140625 C 18.738281 -13.242188 25.675781 -19.195312 34.75 -27 L 76.34375 -62.75 L 76.15625 -62.9375 C 74.226562 -61.8125 72.003906 -60.769531 69.484375 -59.8125 C 66.972656 -58.851562 64.492188 -58.375 62.046875 -58.375 C 58.015625 -58.375 53.347656 -59.695312 48.046875 -62.34375 C 45.472656 -63.664062 43.257812 -64.65625 41.40625 -65.3125 C 39.550781 -65.976562 37.863281 -66.3125 36.34375 -66.3125 C 34.550781 -66.3125 32.84375 -65.976562 31.21875 -65.3125 C 29.601562 -64.65625 28.179688 -63.710938 26.953125 -62.484375 C 25.734375 -61.265625 24.757812 -59.8125 24.03125 -58.125 C 23.300781 -56.4375 22.9375 -54.566406 22.9375 -52.515625 C 22.9375 -49.273438 23.863281 -46.773438 25.71875 -45.015625 C 27.570312 -43.265625 29.753906 -42.390625 32.265625 -42.390625 C 33.453125 -42.390625 34.554688 -42.519531 35.578125 -42.78125 C 36.609375 -43.050781 37.625 -43.453125 38.625 -43.984375 L 38.8125 -42.890625 C 37.957031 -42.492188 36.984375 -42.113281 35.890625 -41.75 C 34.796875 -41.382812 33.617188 -41.203125 32.359375 -41.203125 C 29.378906 -41.203125 26.863281 -42.160156 24.8125 -44.078125 C 22.769531 -45.992188 21.75 -48.742188 21.75 -52.328125 C 21.75 -54.898438 22.242188 -57.210938 23.234375 -59.265625 C 24.222656 -61.316406 25.59375 -63.070312 27.34375 -64.53125 C 29.101562 -65.988281 31.171875 -67.113281 33.546875 -67.90625 C 35.929688 -68.695312 38.484375 -69.09375 41.203125 -69.09375 C 43.515625 -69.09375 45.78125 -68.726562 48 -68 C 50.21875 -67.28125 52.453125 -66.488281 54.703125 -65.625 C 56.953125 -64.757812 59.21875 -63.960938 61.5 -63.234375 C 63.789062 -62.515625 66.191406 -62.15625 68.703125 -62.15625 C 70.753906 -62.15625 72.507812 -62.351562 73.96875 -62.75 C 75.425781 -63.144531 76.71875 -63.671875 77.84375 -64.328125 C 78.832031 -64.929688 79.671875 -65.59375 80.359375 -66.3125 C 81.054688 -67.039062 81.703125 -67.734375 82.296875 -68.390625 C 82.898438 -69.054688 83.460938 -69.601562 83.984375 -70.03125 C 84.515625 -70.46875 85.113281 -70.6875 85.78125 -70.6875 C 86.570312 -70.6875 86.96875 -70.359375 86.96875 -69.703125 Z M 86.96875 -69.703125 "/></g></g></g><g fill="#ffffff" fill-opacity="1"><g transform="translate(67.045692, 72.118698)"><g><path d="M 35.140625 -28.296875 L 38.421875 -34.15625 L 44.875 -34.15625 C 42.957031 -31.507812 40.90625 -28.628906 38.71875 -25.515625 C 36.53125 -22.398438 34.492188 -19.382812 32.609375 -16.46875 C 30.722656 -13.5625 29.148438 -10.898438 27.890625 -8.484375 C 26.640625 -6.066406 26.015625 -4.234375 26.015625 -2.984375 C 26.015625 -1.253906 26.90625 -0.390625 28.6875 -0.390625 C 30.007812 -0.390625 31.710938 -1.035156 33.796875 -2.328125 C 35.890625 -3.617188 38.175781 -5.421875 40.65625 -7.734375 C 43.132812 -10.054688 45.726562 -12.804688 48.4375 -15.984375 C 51.15625 -19.160156 53.773438 -22.671875 56.296875 -26.515625 L 56.890625 -26.3125 C 54.109375 -22.144531 51.359375 -18.367188 48.640625 -14.984375 C 45.929688 -11.609375 43.300781 -8.765625 40.75 -6.453125 C 38.207031 -4.140625 35.828125 -2.351562 33.609375 -1.09375 C 31.390625 0.164062 29.382812 0.796875 27.59375 0.796875 C 25.675781 0.796875 24.269531 0.316406 23.375 -0.640625 C 22.488281 -1.597656 22.046875 -2.742188 22.046875 -4.078125 C 22.046875 -4.992188 22.191406 -5.914062 22.484375 -6.84375 C 22.785156 -7.769531 23.101562 -8.664062 23.4375 -9.53125 L 23.234375 -9.625 C 20.054688 -6.25 17.039062 -3.664062 14.1875 -1.875 C 11.34375 -0.09375 8.832031 0.796875 6.65625 0.796875 C 4.207031 0.796875 2.484375 0.0351562 1.484375 -1.484375 C 0.492188 -3.003906 0 -4.726562 0 -6.65625 C 0 -9.101562 0.757812 -11.914062 2.28125 -15.09375 C 3.800781 -18.269531 6.117188 -21.546875 9.234375 -24.921875 C 12.347656 -28.296875 15.410156 -30.8125 18.421875 -32.46875 C 21.429688 -34.125 24.160156 -34.953125 26.609375 -34.953125 C 28.722656 -34.953125 30.507812 -34.421875 31.96875 -33.359375 C 33.425781 -32.296875 34.421875 -30.609375 34.953125 -28.296875 Z M 9.53125 -1.59375 C 10.851562 -1.59375 12.753906 -2.351562 15.234375 -3.875 C 17.722656 -5.394531 20.390625 -7.773438 23.234375 -11.015625 C 26.078125 -14.265625 28.207031 -17.476562 29.625 -20.65625 C 31.050781 -23.832031 31.765625 -26.644531 31.765625 -29.09375 C 31.765625 -30.550781 31.332031 -31.691406 30.46875 -32.515625 C 29.613281 -33.335938 28.523438 -33.75 27.203125 -33.75 C 26.015625 -33.75 24.640625 -33.351562 23.078125 -32.5625 C 21.523438 -31.769531 19.96875 -30.710938 18.40625 -29.390625 C 16.851562 -28.066406 15.332031 -26.492188 13.84375 -24.671875 C 12.351562 -22.847656 11.015625 -20.925781 9.828125 -18.90625 C 8.640625 -16.894531 7.695312 -14.8125 7 -12.65625 C 6.300781 -10.507812 5.953125 -8.410156 5.953125 -6.359375 C 5.953125 -3.179688 7.144531 -1.59375 9.53125 -1.59375 Z M 9.53125 -1.59375 "/></g></g></g><g fill="#ffffff" fill-opacity="1"><g transform="translate(111.125154, 72.118698)"><g><path d="M 31.96875 -49.34375 C 31.96875 -48.414062 31.671875 -47.632812 31.078125 -47 C 30.484375 -46.375 29.722656 -46.0625 28.796875 -46.0625 C 27.867188 -46.0625 27.101562 -46.375 26.5 -47 C 25.90625 -47.632812 25.609375 -48.414062 25.609375 -49.34375 C 25.609375 -50.269531 25.921875 -51.046875 26.546875 -51.671875 C 27.179688 -52.304688 27.929688 -52.625 28.796875 -52.625 C 29.648438 -52.625 30.390625 -52.304688 31.015625 -51.671875 C 31.648438 -51.046875 31.96875 -50.269531 31.96875 -49.34375 Z M 23.03125 -34.15625 C 19.0625 -28.457031 15.800781 -23.769531 13.25 -20.09375 C 10.707031 -16.425781 8.691406 -13.453125 7.203125 -11.171875 C 5.710938 -8.890625 4.6875 -7.148438 4.125 -5.953125 C 3.5625 -4.765625 3.28125 -3.773438 3.28125 -2.984375 C 3.28125 -1.253906 3.972656 -0.390625 5.359375 -0.390625 C 7.210938 -0.390625 9.460938 -1.285156 12.109375 -3.078125 C 14.753906 -4.867188 17.46875 -7.085938 20.25 -9.734375 C 23.03125 -12.378906 25.644531 -15.191406 28.09375 -18.171875 C 30.539062 -21.148438 32.492188 -23.828125 33.953125 -26.203125 L 34.75 -25.71875 C 32.832031 -22.738281 30.582031 -19.675781 28 -16.53125 C 25.414062 -13.382812 22.734375 -10.519531 19.953125 -7.9375 C 17.171875 -5.363281 14.421875 -3.265625 11.703125 -1.640625 C 8.992188 -0.015625 6.613281 0.796875 4.5625 0.796875 C 2.78125 0.796875 1.457031 0.300781 0.59375 -0.6875 C -0.257812 -1.6875 -0.6875 -2.78125 -0.6875 -3.96875 C -0.6875 -5.425781 -0.304688 -7.015625 0.453125 -8.734375 C 1.210938 -10.453125 2.316406 -12.484375 3.765625 -14.828125 C 5.222656 -17.179688 7.023438 -19.914062 9.171875 -23.03125 C 11.328125 -26.144531 13.828125 -29.851562 16.671875 -34.15625 Z M 23.03125 -34.15625 "/></g></g></g><g fill="#ffffff" fill-opacity="1"><g transform="translate(133.164885, 72.118698)"><g><path d="M 39.421875 -29.09375 C 39.421875 -26.570312 36.867188 -22.070312 31.765625 -15.59375 C 29.253906 -12.34375 27.351562 -9.722656 26.0625 -7.734375 C 24.769531 -5.753906 24.125 -4.234375 24.125 -3.171875 C 24.125 -1.316406 25.050781 -0.390625 26.90625 -0.390625 C 31.007812 -0.390625 35.941406 -3.335938 41.703125 -9.234375 C 44.546875 -12.140625 47.175781 -15.066406 49.59375 -18.015625 C 52.007812 -20.960938 54.144531 -23.859375 56 -26.703125 L 56.6875 -26.3125 C 54.375 -22.738281 51.910156 -19.394531 49.296875 -16.28125 C 46.679688 -13.164062 43.984375 -10.222656 41.203125 -7.453125 C 35.578125 -1.953125 30.78125 0.796875 26.8125 0.796875 C 24.882812 0.796875 23.289062 0.269531 22.03125 -0.78125 C 20.78125 -1.84375 20.15625 -3.300781 20.15625 -5.15625 C 20.15625 -6.882812 20.816406 -8.835938 22.140625 -11.015625 C 23.460938 -13.203125 25.347656 -15.785156 27.796875 -18.765625 C 30.242188 -21.742188 32.128906 -24.238281 33.453125 -26.25 C 34.773438 -28.269531 35.4375 -29.976562 35.4375 -31.375 C 35.4375 -32.164062 35.171875 -32.757812 34.640625 -33.15625 C 34.117188 -33.550781 33.425781 -33.75 32.5625 -33.75 C 30.570312 -33.75 28.140625 -32.753906 25.265625 -30.765625 C 22.390625 -28.785156 19.164062 -25.8125 15.59375 -21.84375 C 8.570312 -13.96875 3.375 -6.6875 0 0 L -6.15625 0 C -4.832031 -2.25 -3.226562 -4.828125 -1.34375 -7.734375 C 0.539062 -10.648438 2.773438 -14.09375 5.359375 -18.0625 C 8.003906 -22.101562 10.15625 -25.429688 11.8125 -28.046875 C 13.46875 -30.660156 14.660156 -32.597656 15.390625 -33.859375 L 21.84375 -34.15625 L 8.734375 -15.984375 L 8.9375 -15.78125 C 11.71875 -19.226562 14.25 -22.175781 16.53125 -24.625 C 18.8125 -27.070312 20.925781 -29.054688 22.875 -30.578125 C 24.832031 -32.097656 26.65625 -33.207031 28.34375 -33.90625 C 30.03125 -34.601562 31.632812 -34.953125 33.15625 -34.953125 C 35.144531 -34.953125 36.6875 -34.40625 37.78125 -33.3125 C 38.875 -32.21875 39.421875 -30.8125 39.421875 -29.09375 Z M 39.421875 -29.09375 "/></g></g></g><g fill="#ffffff" fill-opacity="1"><g transform="translate(177.244346, 72.118698)"><g><path d="M 31.96875 -49.34375 C 31.96875 -48.414062 31.671875 -47.632812 31.078125 -47 C 30.484375 -46.375 29.722656 -46.0625 28.796875 -46.0625 C 27.867188 -46.0625 27.101562 -46.375 26.5 -47 C 25.90625 -47.632812 25.609375 -48.414062 25.609375 -49.34375 C 25.609375 -50.269531 25.921875 -51.046875 26.546875 -51.671875 C 27.179688 -52.304688 27.929688 -52.625 28.796875 -52.625 C 29.648438 -52.625 30.390625 -52.304688 31.015625 -51.671875 C 31.648438 -51.046875 31.96875 -50.269531 31.96875 -49.34375 Z M 23.03125 -34.15625 C 19.0625 -28.457031 15.800781 -23.769531 13.25 -20.09375 C 10.707031 -16.425781 8.691406 -13.453125 7.203125 -11.171875 C 5.710938 -8.890625 4.6875 -7.148438 4.125 -5.953125 C 3.5625 -4.765625 3.28125 -3.773438 3.28125 -2.984375 C 3.28125 -1.253906 3.972656 -0.390625 5.359375 -0.390625 C 7.210938 -0.390625 9.460938 -1.285156 12.109375 -3.078125 C 14.753906 -4.867188 17.46875 -7.085938 20.25 -9.734375 C 23.03125 -12.378906 25.644531 -15.191406 28.09375 -18.171875 C 30.539062 -21.148438 32.492188 -23.828125 33.953125 -26.203125 L 34.75 -25.71875 C 32.832031 -22.738281 30.582031 -19.675781 28 -16.53125 C 25.414062 -13.382812 22.734375 -10.519531 19.953125 -7.9375 C 17.171875 -5.363281 14.421875 -3.265625 11.703125 -1.640625 C 8.992188 -0.015625 6.613281 0.796875 4.5625 0.796875 C 2.78125 0.796875 1.457031 0.300781 0.59375 -0.6875 C -0.257812 -1.6875 -0.6875 -2.78125 -0.6875 -3.96875 C -0.6875 -5.425781 -0.304688 -7.015625 0.453125 -8.734375 C 1.210938 -10.453125 2.316406 -12.484375 3.765625 -14.828125 C 5.222656 -17.179688 7.023438 -19.914062 9.171875 -23.03125 C 11.328125 -26.144531 13.828125 -29.851562 16.671875 -34.15625 Z M 23.03125 -34.15625 "/></g></g></g></g></g></g></svg>