<svg xmlns="http://www.w3.org/2000/svg" xmlns:xlink="http://www.w3.org/1999/xlink" width="1600" zoomAndPan="magnify" viewBox="0 0 1200 257.99999" height="344" preserveAspectRatio="xMidYMid meet" version="1.0"><defs><g/><clipPath id="fed23b9966"><path d="M 270 34 L 733.640625 34 L 733.640625 241.039062 L 270 241.039062 Z M 270 34 " clip-rule="nonzero"/></clipPath><clipPath id="02087c3410"><path d="M 0.679688 2 L 237 2 L 237 204 L 0.679688 204 Z M 0.679688 2 " clip-rule="nonzero"/></clipPath><clipPath id="6debf6c6f9"><rect x="0" width="464" y="0" height="208"/></clipPath><clipPath id="be87e32114"><rect x="0" width="734" y="0" height="242"/></clipPath></defs><g transform="matrix(1, 0, 0, 1, 247, 10)"><g clip-path="url(#be87e32114)"><g fill="#ffffff" fill-opacity="1"><g transform="translate(0.460945, 176.88559)"><g><path d="M 6.109375 0 L 6.109375 -0.984375 C 10.179688 -1.628906 12.765625 -4.210938 13.859375 -8.734375 C 14.960938 -13.253906 15.515625 -19.671875 15.515625 -27.984375 C 15.515625 -39.066406 15.515625 -50.109375 15.515625 -61.109375 C 15.515625 -72.109375 15.515625 -83.148438 15.515625 -94.234375 C 15.515625 -102.546875 14.960938 -108.984375 13.859375 -113.546875 C 12.765625 -118.109375 10.179688 -120.671875 6.109375 -121.234375 L 6.109375 -122.21875 L 51.9375 -122.21875 C 54.625 -122.21875 57.71875 -121.929688 61.21875 -121.359375 C 64.726562 -120.785156 68.273438 -119.765625 71.859375 -118.296875 C 75.453125 -116.835938 78.773438 -114.703125 81.828125 -111.890625 C 84.878906 -109.078125 87.34375 -105.453125 89.21875 -101.015625 C 91.09375 -96.578125 92.03125 -91.097656 92.03125 -84.578125 C 92.03125 -78.628906 91.050781 -73.453125 89.09375 -69.046875 C 87.144531 -64.648438 84.5625 -60.921875 81.34375 -57.859375 C 78.125 -54.804688 74.578125 -52.34375 70.703125 -50.46875 C 66.828125 -48.601562 62.992188 -47.238281 59.203125 -46.375 C 55.421875 -45.519531 51.984375 -45.09375 48.890625 -45.09375 L 30.4375 -45.09375 C 30.4375 -44.53125 30.4375 -43.675781 30.4375 -42.53125 C 30.4375 -41.394531 30.4375 -39.703125 30.4375 -37.453125 C 30.4375 -35.210938 30.4375 -32.054688 30.4375 -27.984375 C 30.4375 -19.671875 30.984375 -13.253906 32.078125 -8.734375 C 33.179688 -4.210938 35.769531 -1.628906 39.84375 -0.984375 L 39.84375 0 Z M 30.3125 -48.765625 L 43.515625 -48.765625 C 49.953125 -48.765625 55.367188 -49.863281 59.765625 -52.0625 C 64.160156 -54.257812 67.660156 -57.148438 70.265625 -60.734375 C 72.878906 -64.328125 74.773438 -68.179688 75.953125 -72.296875 C 77.140625 -76.410156 77.734375 -80.421875 77.734375 -84.328125 C 77.734375 -88.242188 77.140625 -92.195312 75.953125 -96.1875 C 74.773438 -100.175781 72.878906 -103.859375 70.265625 -107.234375 C 67.660156 -110.617188 64.160156 -113.347656 59.765625 -115.421875 C 55.367188 -117.503906 49.988281 -118.546875 43.625 -118.546875 L 30.3125 -118.546875 L 30.3125 -61.109375 C 30.3125 -57.609375 30.3125 -54.921875 30.3125 -53.046875 C 30.3125 -51.171875 30.3125 -49.742188 30.3125 -48.765625 Z M 30.3125 -48.765625 "/></g></g></g><g fill="#ffffff" fill-opacity="1"><g transform="translate(102.261251, 176.88559)"><g><path d="M 55.96875 2.4375 C 49.375 2.4375 43.285156 0.929688 37.703125 -2.078125 C 32.117188 -5.085938 27.226562 -9.40625 23.03125 -15.03125 C 18.84375 -20.65625 15.585938 -27.359375 13.265625 -35.140625 C 10.941406 -42.921875 9.78125 -51.578125 9.78125 -61.109375 C 9.78125 -70.640625 10.921875 -79.296875 13.203125 -87.078125 C 15.484375 -94.859375 18.703125 -101.5625 22.859375 -107.1875 C 27.015625 -112.8125 31.878906 -117.128906 37.453125 -120.140625 C 43.035156 -123.148438 49.128906 -124.65625 55.734375 -124.65625 C 62.328125 -124.65625 68.4375 -123.148438 74.0625 -120.140625 C 79.6875 -117.128906 84.613281 -112.8125 88.84375 -107.1875 C 93.082031 -101.5625 96.382812 -94.859375 98.75 -87.078125 C 101.113281 -79.296875 102.296875 -70.640625 102.296875 -61.109375 C 102.296875 -51.578125 101.132812 -42.921875 98.8125 -35.140625 C 96.488281 -27.359375 93.226562 -20.65625 89.03125 -15.03125 C 84.832031 -9.40625 79.921875 -5.085938 74.296875 -2.078125 C 68.679688 0.929688 62.570312 2.4375 55.96875 2.4375 Z M 46.6875 -117.453125 C 41.144531 -117.453125 36.539062 -115.863281 32.875 -112.6875 C 29.207031 -109.507812 26.4375 -105.226562 24.5625 -99.84375 C 22.6875 -94.46875 21.609375 -88.441406 21.328125 -81.765625 C 21.046875 -75.085938 21.472656 -68.179688 22.609375 -61.046875 C 23.753906 -53.921875 25.585938 -47.015625 28.109375 -40.328125 C 30.640625 -33.648438 33.738281 -27.617188 37.40625 -22.234375 C 41.070312 -16.859375 45.242188 -12.582031 49.921875 -9.40625 C 54.609375 -6.226562 59.722656 -4.640625 65.265625 -4.640625 C 70.890625 -4.640625 75.535156 -6.226562 79.203125 -9.40625 C 82.867188 -12.582031 85.632812 -16.859375 87.5 -22.234375 C 89.375 -27.617188 90.472656 -33.648438 90.796875 -40.328125 C 91.128906 -47.015625 90.703125 -53.921875 89.515625 -61.046875 C 88.335938 -68.179688 86.484375 -75.085938 83.953125 -81.765625 C 81.429688 -88.441406 78.335938 -94.46875 74.671875 -99.84375 C 71.003906 -105.226562 66.804688 -109.507812 62.078125 -112.6875 C 57.359375 -115.863281 52.226562 -117.453125 46.6875 -117.453125 Z M 46.6875 -117.453125 "/></g></g></g><g fill="#ffffff" fill-opacity="1"><g transform="translate(214.327137, 176.88559)"><g><path d="M 6.109375 -0.984375 C 10.179688 -1.628906 12.765625 -4.210938 13.859375 -8.734375 C 14.960938 -13.253906 15.515625 -19.671875 15.515625 -27.984375 C 15.515625 -39.066406 15.515625 -50.109375 15.515625 -61.109375 C 15.515625 -72.109375 15.515625 -83.148438 15.515625 -94.234375 C 15.515625 -102.546875 14.960938 -108.984375 13.859375 -113.546875 C 12.765625 -118.109375 10.179688 -120.671875 6.109375 -121.234375 L 6.109375 -122.21875 L 54.75 -122.21875 C 56.300781 -122.21875 58.582031 -122.132812 61.59375 -121.96875 C 64.613281 -121.8125 67.914062 -121.320312 71.5 -120.5 C 75.082031 -119.6875 78.503906 -118.34375 81.765625 -116.46875 C 85.023438 -114.59375 87.710938 -111.960938 89.828125 -108.578125 C 91.953125 -105.203125 93.015625 -100.867188 93.015625 -95.578125 C 93.015625 -90.359375 91.382812 -85.671875 88.125 -81.515625 C 84.863281 -77.359375 80.238281 -74.078125 74.25 -71.671875 C 68.257812 -69.273438 61.234375 -68.035156 53.171875 -67.953125 C 57.648438 -65.671875 61.476562 -62.492188 64.65625 -58.421875 C 67.832031 -54.347656 70.582031 -49.828125 72.90625 -44.859375 C 75.226562 -39.890625 77.328125 -34.878906 79.203125 -29.828125 C 81.078125 -24.773438 82.945312 -20.128906 84.8125 -15.890625 C 86.6875 -11.648438 88.804688 -8.242188 91.171875 -5.671875 C 93.535156 -3.109375 96.304688 -1.828125 99.484375 -1.828125 L 99.484375 0 L 82.984375 0 C 79.484375 0 76.671875 -1.195312 74.546875 -3.59375 C 72.429688 -6 70.578125 -9.378906 68.984375 -13.734375 C 67.398438 -18.097656 65.628906 -23.132812 63.671875 -28.84375 C 62.203125 -33.238281 60.632812 -37.71875 58.96875 -42.28125 C 57.300781 -46.84375 55.425781 -51.0625 53.34375 -54.9375 C 51.269531 -58.8125 48.867188 -61.945312 46.140625 -64.34375 C 43.410156 -66.75 40.210938 -67.953125 36.546875 -67.953125 L 30.3125 -67.953125 L 30.3125 -61.109375 C 30.3125 -57.035156 30.3125 -54 30.3125 -52 C 30.3125 -50.007812 30.3125 -48.601562 30.3125 -47.78125 C 30.3125 -46.96875 30.332031 -46.316406 30.375 -45.828125 C 30.414062 -45.335938 30.4375 -44.582031 30.4375 -43.5625 C 30.4375 -42.550781 30.4375 -40.863281 30.4375 -38.5 C 30.4375 -36.132812 30.4375 -32.628906 30.4375 -27.984375 C 30.4375 -19.671875 30.984375 -13.253906 32.078125 -8.734375 C 33.179688 -4.210938 35.769531 -1.628906 39.84375 -0.984375 L 39.84375 0 L 6.109375 0 Z M 30.3125 -118.671875 L 30.3125 -71.125 L 50.59375 -71.125 C 58.75 -71.125 65.3125 -73.203125 70.28125 -77.359375 C 75.25 -81.515625 77.734375 -87.503906 77.734375 -95.328125 C 77.734375 -102.578125 75.429688 -108.28125 70.828125 -112.4375 C 66.222656 -116.59375 59.601562 -118.671875 50.96875 -118.671875 Z M 30.3125 -118.671875 "/></g></g></g><g fill="#ffffff" fill-opacity="1"><g transform="translate(317.471758, 176.88559)"><g><path d="M 7.09375 -94.96875 L 6.109375 -94.96875 L 6.109375 -124.65625 L 7.09375 -124.65625 C 7.988281 -123.6875 9.632812 -123.035156 12.03125 -122.703125 C 14.4375 -122.378906 16.535156 -122.21875 18.328125 -122.21875 L 77 -122.21875 C 78.789062 -122.21875 80.882812 -122.378906 83.28125 -122.703125 C 85.6875 -123.035156 87.335938 -123.6875 88.234375 -124.65625 L 89.21875 -124.65625 L 89.21875 -94.96875 L 88.234375 -94.96875 C 87.671875 -99.363281 86.390625 -103.332031 84.390625 -106.875 C 82.390625 -110.425781 79.578125 -113.257812 75.953125 -115.375 C 72.328125 -117.488281 67.707031 -118.546875 62.09375 -118.546875 L 54.515625 -118.546875 L 54.515625 -61.109375 C 54.515625 -57.035156 54.515625 -54 54.515625 -52 C 54.515625 -50.007812 54.515625 -48.601562 54.515625 -47.78125 C 54.515625 -46.96875 54.53125 -46.316406 54.5625 -45.828125 C 54.601562 -45.335938 54.625 -44.582031 54.625 -43.5625 C 54.625 -42.550781 54.625 -40.863281 54.625 -38.5 C 54.625 -36.132812 54.625 -32.628906 54.625 -27.984375 C 54.625 -19.671875 55.175781 -13.253906 56.28125 -8.734375 C 57.382812 -4.210938 59.972656 -1.628906 64.046875 -0.984375 L 64.046875 0 L 30.3125 0 L 30.3125 -0.984375 C 34.382812 -1.628906 36.96875 -4.210938 38.0625 -8.734375 C 39.164062 -13.253906 39.71875 -19.671875 39.71875 -27.984375 C 39.71875 -32.628906 39.71875 -36.132812 39.71875 -38.5 C 39.71875 -40.863281 39.71875 -42.550781 39.71875 -43.5625 C 39.71875 -44.582031 39.738281 -45.335938 39.78125 -45.828125 C 39.820312 -46.316406 39.84375 -46.96875 39.84375 -47.78125 C 39.84375 -48.601562 39.84375 -50.007812 39.84375 -52 C 39.84375 -54 39.84375 -57.035156 39.84375 -61.109375 L 39.84375 -118.546875 L 33.25 -118.546875 C 27.625 -118.546875 23 -117.488281 19.375 -115.375 C 15.75 -113.257812 12.957031 -110.425781 11 -106.875 C 9.039062 -103.332031 7.738281 -99.363281 7.09375 -94.96875 Z M 7.09375 -94.96875 "/></g></g></g><g fill="#ffffff" fill-opacity="1"><g transform="translate(213.865611, 23.990392)"><g><path d="M 1.890625 0 L 1.890625 -15.765625 L 5.46875 -15.765625 L 5.46875 0 Z M 1.890625 0 "/></g></g></g><g fill="#ffffff" fill-opacity="1"><g transform="translate(228.940882, 23.990392)"><g><path d="M 1.890625 0 L 1.890625 -15.765625 L 4.9375 -15.765625 L 11.890625 -6.171875 L 11.890625 -15.765625 L 15.453125 -15.765625 L 15.453125 0 L 12.421875 0 L 5.453125 -9.671875 L 5.453125 0 Z M 1.890625 0 "/></g></g></g><g fill="#ffffff" fill-opacity="1"><g transform="translate(253.99673, 23.990392)"><g><path d="M 7.390625 0.3125 C 6.066406 0.3125 4.925781 0.0976562 3.96875 -0.328125 C 3.019531 -0.765625 2.285156 -1.382812 1.765625 -2.1875 C 1.242188 -3 0.984375 -3.945312 0.984375 -5.03125 L 4.5 -5.03125 C 4.5 -4.269531 4.757812 -3.679688 5.28125 -3.265625 C 5.800781 -2.847656 6.5 -2.640625 7.375 -2.640625 C 8.125 -2.640625 8.710938 -2.785156 9.140625 -3.078125 C 9.578125 -3.367188 9.796875 -3.773438 9.796875 -4.296875 C 9.796875 -4.859375 9.53125 -5.3125 9 -5.65625 C 8.476562 -6 7.664062 -6.289062 6.5625 -6.53125 C 4.707031 -6.925781 3.335938 -7.519531 2.453125 -8.3125 C 1.566406 -9.113281 1.125 -10.148438 1.125 -11.421875 C 1.125 -12.867188 1.648438 -14.007812 2.703125 -14.84375 C 3.753906 -15.675781 5.1875 -16.09375 7 -16.09375 C 8.25 -16.09375 9.332031 -15.875 10.25 -15.4375 C 11.164062 -15.007812 11.875 -14.410156 12.375 -13.640625 C 12.882812 -12.867188 13.140625 -11.945312 13.140625 -10.875 L 9.6875 -10.875 C 9.6875 -11.582031 9.453125 -12.140625 8.984375 -12.546875 C 8.523438 -12.953125 7.878906 -13.15625 7.046875 -13.15625 C 6.296875 -13.15625 5.703125 -13.007812 5.265625 -12.71875 C 4.835938 -12.425781 4.625 -12.015625 4.625 -11.484375 C 4.625 -11.003906 4.863281 -10.597656 5.34375 -10.265625 C 5.820312 -9.941406 6.660156 -9.632812 7.859375 -9.34375 C 9.828125 -8.882812 11.242188 -8.265625 12.109375 -7.484375 C 12.984375 -6.703125 13.421875 -5.6875 13.421875 -4.4375 C 13.421875 -2.945312 12.882812 -1.78125 11.8125 -0.9375 C 10.738281 -0.101562 9.265625 0.3125 7.390625 0.3125 Z M 7.390625 0.3125 "/></g></g></g><g fill="#ffffff" fill-opacity="1"><g transform="translate(275.132286, 23.990392)"><g><path d="M 6.015625 0 L 6.015625 -5.515625 L 0.203125 -15.765625 L 4.28125 -15.765625 L 6.234375 -12.125 L 7.8125 -9.265625 L 9.375 -12.125 L 11.3125 -15.765625 L 15.390625 -15.765625 L 9.59375 -5.5625 L 9.59375 0 Z M 6.015625 0 "/></g></g></g><g fill="#ffffff" fill-opacity="1"><g transform="translate(298.430832, 23.990392)"><g><path d="M 1.890625 0 L 1.890625 -15.765625 L 5.46875 -15.765625 L 5.46875 0 Z M 1.890625 0 "/></g></g></g><g fill="#ffffff" fill-opacity="1"><g transform="translate(313.506102, 23.990392)"><g><path d="M 1.890625 0 L 1.890625 -15.765625 L 8.625 -15.765625 C 9.832031 -15.765625 10.878906 -15.546875 11.765625 -15.109375 C 12.648438 -14.679688 13.332031 -14.0625 13.8125 -13.25 C 14.289062 -12.4375 14.53125 -11.46875 14.53125 -10.34375 C 14.53125 -9.1875 14.265625 -8.191406 13.734375 -7.359375 C 13.210938 -6.523438 12.476562 -5.894531 11.53125 -5.46875 L 14.796875 0 L 10.65625 0 L 7.84375 -4.90625 L 5.46875 -4.90625 L 5.46875 0 Z M 5.4375 -7.9375 L 8.15625 -7.9375 C 9.039062 -7.9375 9.71875 -8.140625 10.1875 -8.546875 C 10.664062 -8.960938 10.90625 -9.550781 10.90625 -10.3125 C 10.90625 -11.082031 10.664062 -11.671875 10.1875 -12.078125 C 9.71875 -12.492188 9.039062 -12.703125 8.15625 -12.703125 L 5.4375 -12.703125 Z M 5.4375 -7.9375 "/></g></g></g><g fill="#ffffff" fill-opacity="1"><g transform="translate(336.827139, 23.990392)"><g><path d="M 0.203125 0 L 6.46875 -15.765625 L 9.984375 -15.765625 L 16.25 0 L 12.421875 0 L 11.359375 -2.71875 L 5.09375 -2.71875 L 4.03125 0 Z M 6.015625 -5.546875 L 10.453125 -5.546875 L 8.21875 -11.3125 Z M 6.015625 -5.546875 "/></g></g></g><g fill="#ffffff" fill-opacity="1"><g transform="translate(360.981799, 23.990392)"><g><path d="M 11.65625 0 L 11.65625 -6.359375 L 5.46875 -6.359375 L 5.46875 0 L 1.890625 0 L 1.890625 -15.765625 L 5.46875 -15.765625 L 5.46875 -9.71875 L 11.65625 -9.71875 L 11.65625 -15.765625 L 15.234375 -15.765625 L 15.234375 0 Z M 11.65625 0 "/></g></g></g><g fill="#ffffff" fill-opacity="1"><g transform="translate(385.812356, 23.990392)"><g/></g></g><g fill="#ffffff" fill-opacity="1"><g transform="translate(398.8149, 23.990392)"><g><path d="M 0.953125 0 L 0.953125 -2.59375 L 8.15625 -12.53125 L 1.1875 -12.53125 L 1.1875 -15.765625 L 12.796875 -15.765625 L 12.796875 -13.1875 L 5.609375 -3.25 L 12.984375 -3.25 L 12.984375 0 Z M 0.953125 0 "/></g></g></g><g fill="#ffffff" fill-opacity="1"><g transform="translate(420.446253, 23.990392)"><g><path d="M 0.203125 0 L 6.46875 -15.765625 L 9.984375 -15.765625 L 16.25 0 L 12.421875 0 L 11.359375 -2.71875 L 5.09375 -2.71875 L 4.03125 0 Z M 6.015625 -5.546875 L 10.453125 -5.546875 L 8.21875 -11.3125 Z M 6.015625 -5.546875 "/></g></g></g><g fill="#ffffff" fill-opacity="1"><g transform="translate(444.6009, 23.990392)"><g><path d="M 1.890625 0 L 1.890625 -15.765625 L 5.46875 -15.765625 L 5.46875 0 Z M 1.890625 0 "/></g></g></g><g fill="#ffffff" fill-opacity="1"><g transform="translate(459.676183, 23.990392)"><g><path d="M 1.890625 0 L 1.890625 -15.765625 L 4.9375 -15.765625 L 11.890625 -6.171875 L 11.890625 -15.765625 L 15.453125 -15.765625 L 15.453125 0 L 12.421875 0 L 5.453125 -9.671875 L 5.453125 0 Z M 1.890625 0 "/></g></g></g><g fill="#ffffff" fill-opacity="1"><g transform="translate(484.732031, 23.990392)"><g><path d="M 1.890625 0 L 1.890625 -15.765625 L 5.46875 -15.765625 L 5.46875 0 Z M 1.890625 0 "/></g></g></g><g clip-path="url(#fed23b9966)"><g transform="matrix(1, 0, 0, 1, 270, 34)"><g clip-path="url(#6debf6c6f9)"><g clip-path="url(#02087c3410)"><g fill="#ffffff" fill-opacity="1"><g transform="translate(116.857667, 144.850861)"><g><path d="M 119.75 -131.4375 C 119.75 -128.164062 118.722656 -125.46875 116.671875 -123.34375 C 114.628906 -121.226562 112.035156 -120.03125 108.890625 -119.75 C 109.566406 -122.488281 110.039062 -124.609375 110.3125 -126.109375 C 110.59375 -127.617188 110.734375 -129.257812 110.734375 -131.03125 C 110.734375 -133.769531 110.082031 -135.992188 108.78125 -137.703125 C 107.488281 -139.410156 105.269531 -140.265625 102.125 -140.265625 C 95.695312 -140.265625 88.65625 -136.226562 81 -128.15625 C 77.175781 -124.195312 73.382812 -119.550781 69.625 -114.21875 C 65.863281 -108.882812 62.34375 -103.550781 59.0625 -98.21875 L 42.25 -70.546875 L 88.59375 -70.546875 L 88.59375 -68.078125 L 41.015625 -68.078125 C 17.359375 -27.472656 -0.617188 0.484375 -12.921875 15.796875 C -17.429688 21.398438 -22.144531 26.796875 -27.0625 31.984375 C -31.988281 37.179688 -37.320312 41.757812 -43.0625 45.71875 C -48.800781 49.6875 -55.085938 52.832031 -61.921875 55.15625 C -68.765625 57.476562 -76.351562 58.640625 -84.6875 58.640625 C -89.195312 58.640625 -93.398438 58.023438 -97.296875 56.796875 C -101.191406 55.566406 -104.503906 53.890625 -107.234375 51.765625 C -109.972656 49.648438 -112.128906 47.085938 -113.703125 44.078125 C -115.273438 41.078125 -116.0625 37.734375 -116.0625 34.046875 C -116.0625 28.578125 -114.382812 23.992188 -111.03125 20.296875 C -107.6875 16.609375 -101.984375 14.765625 -93.921875 14.765625 L -92.28125 14.765625 L -92.28125 16.40625 C -96.382812 16.675781 -99.867188 18.242188 -102.734375 21.109375 C -105.609375 23.984375 -107.046875 27.953125 -107.046875 33.015625 C -107.046875 40.804688 -104.890625 46.613281 -100.578125 50.4375 C -96.273438 54.269531 -90.640625 56.1875 -83.671875 56.1875 C -76.972656 56.1875 -70.507812 54.785156 -64.28125 51.984375 C -58.0625 49.179688 -51.941406 45.113281 -45.921875 39.78125 C -39.910156 34.445312 -33.894531 27.984375 -27.875 20.390625 C -21.863281 12.804688 -15.785156 4.234375 -9.640625 -5.328125 C -2.804688 -15.859375 3.753906 -26.316406 10.046875 -36.703125 C 16.335938 -47.097656 22.765625 -57.554688 29.328125 -68.078125 L 14.765625 -68.078125 L 14.765625 -70.546875 L 30.546875 -70.546875 C 39.441406 -85.304688 47.546875 -97.539062 54.859375 -107.25 C 62.171875 -116.957031 68.425781 -124.066406 73.625 -128.578125 C 78.945312 -133.222656 84.207031 -136.738281 89.40625 -139.125 C 94.601562 -141.519531 99.796875 -142.71875 104.984375 -142.71875 C 109.359375 -142.71875 112.910156 -141.796875 115.640625 -139.953125 C 118.378906 -138.109375 119.75 -135.269531 119.75 -131.4375 Z M 119.75 -131.4375 "/></g></g></g></g><g fill="#ffffff" fill-opacity="1"><g transform="translate(162.381419, 144.850861)"><g><path d="M 93.296875 -41.828125 C 97.265625 -41.828125 101.0625 -42.785156 104.6875 -44.703125 C 108.3125 -46.617188 111.765625 -49.351562 115.046875 -52.90625 L 116.6875 -51.875 C 113.40625 -48.1875 109.710938 -45.25 105.609375 -43.0625 C 101.503906 -40.875 97.472656 -39.78125 93.515625 -39.78125 C 89.679688 -39.78125 86.394531 -40.597656 83.65625 -42.234375 C 80.925781 -43.878906 78.8125 -45.929688 77.3125 -48.390625 L 76.890625 -48.390625 C 74.984375 -42.242188 72.046875 -36.160156 68.078125 -30.140625 C 64.117188 -24.128906 59.570312 -18.765625 54.4375 -14.046875 C 49.3125 -9.328125 43.773438 -5.53125 37.828125 -2.65625 C 31.878906 0.207031 26.035156 1.640625 20.296875 1.640625 C 14.421875 1.640625 9.976562 -0.0664062 6.96875 -3.484375 C 3.957031 -6.898438 2.453125 -11.476562 2.453125 -17.21875 C 2.453125 -21.59375 3.957031 -26.820312 6.96875 -32.90625 C 9.976562 -38.988281 14.628906 -45.378906 20.921875 -52.078125 C 27.203125 -58.785156 33.726562 -63.8125 40.5 -67.15625 C 47.269531 -70.507812 53.726562 -72.1875 59.875 -72.1875 C 65.613281 -72.1875 69.988281 -70.472656 73 -67.046875 C 76.007812 -63.628906 77.648438 -59.597656 77.921875 -54.953125 C 78.191406 -51.535156 79.625 -48.492188 82.21875 -45.828125 C 84.820312 -43.160156 88.515625 -41.828125 93.296875 -41.828125 Z M 21.734375 -0.8125 C 25.285156 -0.8125 28.835938 -1.769531 32.390625 -3.6875 C 35.953125 -5.601562 39.40625 -8.132812 42.75 -11.28125 C 46.101562 -14.425781 49.25 -18.046875 52.1875 -22.140625 C 55.125 -26.242188 57.6875 -30.484375 59.875 -34.859375 C 62.0625 -39.234375 63.769531 -43.539062 65 -47.78125 C 66.226562 -52.019531 66.84375 -55.914062 66.84375 -59.46875 C 66.84375 -62.34375 66.125 -64.769531 64.6875 -66.75 C 63.257812 -68.726562 60.972656 -69.71875 57.828125 -69.71875 C 55.085938 -69.71875 52.113281 -68.828125 48.90625 -67.046875 C 45.695312 -65.273438 42.453125 -62.882812 39.171875 -59.875 C 35.890625 -56.863281 32.707031 -53.410156 29.625 -49.515625 C 26.550781 -45.617188 23.816406 -41.550781 21.421875 -37.3125 C 19.035156 -33.082031 17.125 -28.8125 15.6875 -24.5 C 14.25 -20.195312 13.53125 -16.128906 13.53125 -12.296875 C 13.53125 -8.742188 14.210938 -5.941406 15.578125 -3.890625 C 16.953125 -1.835938 19.003906 -0.8125 21.734375 -0.8125 Z M 21.734375 -0.8125 "/></g></g></g><g fill="#ffffff" fill-opacity="1"><g transform="translate(253.428946, 144.850861)"><g><path d="M 93.296875 -142.71875 C 72.929688 -111.957031 56.597656 -87.414062 44.296875 -69.09375 C 31.992188 -50.78125 23.722656 -38.34375 19.484375 -31.78125 C 15.515625 -25.5 12.398438 -20.304688 10.140625 -16.203125 C 7.890625 -12.097656 6.765625 -8.679688 6.765625 -5.953125 C 6.765625 -2.523438 8.269531 -0.8125 11.28125 -0.8125 C 17.570312 -0.8125 25.84375 -5.460938 36.09375 -14.765625 C 41.425781 -19.546875 46.894531 -25.21875 52.5 -31.78125 C 58.101562 -38.34375 63.976562 -45.863281 70.125 -54.34375 L 72.390625 -53.515625 C 66.648438 -45.585938 60.972656 -38.304688 55.359375 -31.671875 C 49.753906 -25.046875 44.082031 -19.132812 38.34375 -13.9375 C 32.601562 -8.75 27.507812 -4.851562 23.0625 -2.25 C 18.625 0.34375 14.421875 1.640625 10.453125 1.640625 C 6.210938 1.640625 3.171875 0.6875 1.328125 -1.21875 C -0.515625 -3.132812 -1.4375 -5.664062 -1.4375 -8.8125 C -1.4375 -13.46875 0.132812 -18.800781 3.28125 -24.8125 C 4.78125 -27.957031 7.785156 -33.050781 12.296875 -40.09375 C 16.816406 -47.132812 22.898438 -56.394531 30.546875 -67.875 C 38.203125 -79.21875 46.03125 -91.144531 54.03125 -103.65625 C 62.03125 -116.164062 70.335938 -129.1875 78.953125 -142.71875 Z M 93.296875 -142.71875 "/></g></g></g><g fill="#ffffff" fill-opacity="1"><g transform="translate(298.952697, 144.850861)"><g><path d="M 66.03125 -101.921875 C 66.03125 -100.003906 65.414062 -98.394531 64.1875 -97.09375 C 62.957031 -95.800781 61.382812 -95.15625 59.46875 -95.15625 C 57.550781 -95.15625 55.976562 -95.800781 54.75 -97.09375 C 53.519531 -98.394531 52.90625 -100.003906 52.90625 -101.921875 C 52.90625 -103.828125 53.550781 -105.429688 54.84375 -106.734375 C 56.144531 -108.035156 57.6875 -108.6875 59.46875 -108.6875 C 61.25 -108.6875 62.785156 -108.035156 64.078125 -106.734375 C 65.378906 -105.429688 66.03125 -103.828125 66.03125 -101.921875 Z M 47.578125 -70.546875 C 39.367188 -58.785156 32.632812 -49.109375 27.375 -41.515625 C 22.113281 -33.929688 17.941406 -27.78125 14.859375 -23.0625 C 11.785156 -18.351562 9.664062 -14.765625 8.5 -12.296875 C 7.34375 -9.835938 6.765625 -7.789062 6.765625 -6.15625 C 6.765625 -2.59375 8.203125 -0.8125 11.078125 -0.8125 C 14.898438 -0.8125 19.546875 -2.65625 25.015625 -6.34375 C 30.484375 -10.039062 36.085938 -14.625 41.828125 -20.09375 C 47.578125 -25.5625 52.976562 -31.367188 58.03125 -37.515625 C 63.09375 -43.671875 67.125 -49.210938 70.125 -54.140625 L 71.765625 -53.109375 C 67.804688 -46.960938 63.160156 -40.640625 57.828125 -34.140625 C 52.492188 -27.648438 46.957031 -21.738281 41.21875 -16.40625 C 35.476562 -11.070312 29.804688 -6.726562 24.203125 -3.375 C 18.597656 -0.03125 13.675781 1.640625 9.4375 1.640625 C 5.738281 1.640625 3 0.613281 1.21875 -1.4375 C -0.550781 -3.488281 -1.4375 -5.742188 -1.4375 -8.203125 C -1.4375 -11.210938 -0.648438 -14.492188 0.921875 -18.046875 C 2.492188 -21.597656 4.78125 -25.800781 7.78125 -30.65625 C 10.789062 -35.507812 14.515625 -41.148438 18.953125 -47.578125 C 23.398438 -54.003906 28.566406 -61.660156 34.453125 -70.546875 Z M 47.578125 -70.546875 "/></g></g></g><g fill="#ffffff" fill-opacity="1"><g transform="translate(344.476448, 144.850861)"><g><path d="M 93.296875 -41.828125 C 97.265625 -41.828125 101.0625 -42.785156 104.6875 -44.703125 C 108.3125 -46.617188 111.765625 -49.351562 115.046875 -52.90625 L 116.6875 -51.875 C 113.40625 -48.1875 109.710938 -45.25 105.609375 -43.0625 C 101.503906 -40.875 97.472656 -39.78125 93.515625 -39.78125 C 89.679688 -39.78125 86.394531 -40.597656 83.65625 -42.234375 C 80.925781 -43.878906 78.8125 -45.929688 77.3125 -48.390625 L 76.890625 -48.390625 C 74.984375 -42.242188 72.046875 -36.160156 68.078125 -30.140625 C 64.117188 -24.128906 59.570312 -18.765625 54.4375 -14.046875 C 49.3125 -9.328125 43.773438 -5.53125 37.828125 -2.65625 C 31.878906 0.207031 26.035156 1.640625 20.296875 1.640625 C 14.421875 1.640625 9.976562 -0.0664062 6.96875 -3.484375 C 3.957031 -6.898438 2.453125 -11.476562 2.453125 -17.21875 C 2.453125 -21.59375 3.957031 -26.820312 6.96875 -32.90625 C 9.976562 -38.988281 14.628906 -45.378906 20.921875 -52.078125 C 27.203125 -58.785156 33.726562 -63.8125 40.5 -67.15625 C 47.269531 -70.507812 53.726562 -72.1875 59.875 -72.1875 C 65.613281 -72.1875 69.988281 -70.472656 73 -67.046875 C 76.007812 -63.628906 77.648438 -59.597656 77.921875 -54.953125 C 78.191406 -51.535156 79.625 -48.492188 82.21875 -45.828125 C 84.820312 -43.160156 88.515625 -41.828125 93.296875 -41.828125 Z M 21.734375 -0.8125 C 25.285156 -0.8125 28.835938 -1.769531 32.390625 -3.6875 C 35.953125 -5.601562 39.40625 -8.132812 42.75 -11.28125 C 46.101562 -14.425781 49.25 -18.046875 52.1875 -22.140625 C 55.125 -26.242188 57.6875 -30.484375 59.875 -34.859375 C 62.0625 -39.234375 63.769531 -43.539062 65 -47.78125 C 66.226562 -52.019531 66.84375 -55.914062 66.84375 -59.46875 C 66.84375 -62.34375 66.125 -64.769531 64.6875 -66.75 C 63.257812 -68.726562 60.972656 -69.71875 57.828125 -69.71875 C 55.085938 -69.71875 52.113281 -68.828125 48.90625 -67.046875 C 45.695312 -65.273438 42.453125 -62.882812 39.171875 -59.875 C 35.890625 -56.863281 32.707031 -53.410156 29.625 -49.515625 C 26.550781 -45.617188 23.816406 -41.550781 21.421875 -37.3125 C 19.035156 -33.082031 17.125 -28.8125 15.6875 -24.5 C 14.25 -20.195312 13.53125 -16.128906 13.53125 -12.296875 C 13.53125 -8.742188 14.210938 -5.941406 15.578125 -3.890625 C 16.953125 -1.835938 19.003906 -0.8125 21.734375 -0.8125 Z M 21.734375 -0.8125 "/></g></g></g></g></g></g></g></g></svg>